<?xml version="1.0" encoding="UTF-8" standalone="no"?>
<!-- Created with Inkscape (http://www.inkscape.org/) -->

<svg
   xmlns:dc="http://purl.org/dc/elements/1.1/"
   xmlns:cc="http://creativecommons.org/ns#"
   xmlns:rdf="http://www.w3.org/1999/02/22-rdf-syntax-ns#"
   xmlns:svg="http://www.w3.org/2000/svg"
   xmlns="http://www.w3.org/2000/svg"
   xmlns:sodipodi="http://sodipodi.sourceforge.net/DTD/sodipodi-0.dtd"
   xmlns:inkscape="http://www.inkscape.org/namespaces/inkscape"
   width="32"
   height="32"
   viewBox="0 0 31.999999 31.999998"
   id="svg4315"
   version="1.1"
   inkscape:version="0.91 r13725"
   sodipodi:docname="+.svg">
  <defs
     id="defs4317" />
  <sodipodi:namedview
     id="base"
     pagecolor="#ffffff"
     bordercolor="#666666"
     borderopacity="1.0"
     inkscape:pageopacity="0.0"
     inkscape:pageshadow="2"
     inkscape:zoom="7.919596"
     inkscape:cx="40.216026"
     inkscape:cy="16.533126"
     inkscape:document-units="px"
     inkscape:current-layer="layer1"
     showgrid="false"
     units="px"
     inkscape:window-width="1360"
     inkscape:window-height="715"
     inkscape:window-x="-8"
     inkscape:window-y="-8"
     inkscape:window-maximized="1"
     showguides="true"
     inkscape:guide-bbox="true" />
  <metadata
     id="metadata4320">
    <rdf:RDF>
      <cc:Work
         rdf:about="">
        <dc:format>image/svg+xml</dc:format>
        <dc:type
           rdf:resource="http://purl.org/dc/dcmitype/StillImage" />
        <dc:title />
      </cc:Work>
    </rdf:RDF>
  </metadata>
  <g
     inkscape:label="Layer 1"
     inkscape:groupmode="layer"
     id="layer1"
     transform="translate(0,-1020.3622)">
    <path
       style="color:#000000;font-style:normal;font-variant:normal;font-weight:normal;font-stretch:normal;font-size:medium;line-height:normal;font-family:sans-serif;text-indent:0;text-align:start;text-decoration:none;text-decoration-line:none;text-decoration-style:solid;text-decoration-color:#000000;letter-spacing:normal;word-spacing:normal;text-transform:none;direction:ltr;block-progression:tb;writing-mode:lr-tb;baseline-shift:baseline;text-anchor:start;white-space:normal;clip-rule:nonzero;display:inline;overflow:visible;visibility:visible;opacity:1;isolation:auto;mix-blend-mode:normal;color-interpolation:sRGB;color-interpolation-filters:linearRGB;solid-color:#000000;solid-opacity:1;fill:#000000;fill-opacity:1;fill-rule:nonzero;stroke:none;stroke-width:0.99999994;stroke-linecap:butt;stroke-linejoin:miter;stroke-miterlimit:4;stroke-dasharray:none;stroke-dashoffset:0;stroke-opacity:1;color-rendering:auto;image-rendering:auto;shape-rendering:auto;text-rendering:auto;enable-background:accumulate"
       d="m 14.035156,1021.3633 c -1.042189,0 -1.896484,0.8543 -1.896484,1.8965 l 0,9.2402 -9.2402345,0 C 1.8553875,1032.5 1,1033.3554 1,1034.3984 l 0,3.9278 c 0,1.043 0.8553875,1.8984 1.8984375,1.8984 l 9.2402345,0 0,9.2402 c 0,1.0423 0.853434,1.8985 1.896484,1.8985 l 3.927735,0 c 1.04305,0 1.898437,-0.8554 1.898437,-1.8985 l 0,-9.2402 9.240234,0 c 1.04305,0 1.898438,-0.8554 1.898438,-1.8984 l 0,-3.9278 c 0,-1.043 -0.855388,-1.8984 -1.898438,-1.8984 l -9.240234,0 0,-9.2402 c 0,-1.043 -0.856248,-1.8965 -1.898437,-1.8965 l -3.927735,0 z m 0,1 3.927735,0 c 0.50691,0 0.898437,0.3905 0.898437,0.8965 l 0,10.2402 10.240234,0 c 0.506051,0 0.898438,0.3924 0.898438,0.8984 l 0,3.9278 c 0,0.506 -0.392387,0.8984 -0.898438,0.8984 l -10.240234,0 0,10.2402 c 0,0.5062 -0.392387,0.8985 -0.898437,0.8985 l -3.927735,0 c -0.50605,0 -0.896484,-0.3915 -0.896484,-0.8985 l 0,-10.2402 -10.2402345,0 C 2.3923875,1039.2246 2,1038.8322 2,1038.3262 l 0,-3.9278 c 0,-0.5059 0.3923875,-0.8984 0.8984375,-0.8984 l 10.2402345,0 0,-10.2402 c 0,-0.5069 0.389574,-0.8965 0.896484,-0.8965 z"
       id="rect4943-6-5-8"
       inkscape:connector-curvature="0" />
  </g>
</svg>
