<?xml version="1.0" encoding="UTF-8" standalone="no"?>
<!-- Created with Inkscape (http://www.inkscape.org/) -->

<svg
   xmlns:dc="http://purl.org/dc/elements/1.1/"
   xmlns:cc="http://creativecommons.org/ns#"
   xmlns:rdf="http://www.w3.org/1999/02/22-rdf-syntax-ns#"
   xmlns:svg="http://www.w3.org/2000/svg"
   xmlns="http://www.w3.org/2000/svg"
   xmlns:sodipodi="http://sodipodi.sourceforge.net/DTD/sodipodi-0.dtd"
   xmlns:inkscape="http://www.inkscape.org/namespaces/inkscape"
   width="32"
   height="32"
   viewBox="0 0 31.999999 31.999998"
   id="svg4315"
   version="1.1"
   inkscape:version="0.91 r13725"
   sodipodi:docname="5.svg">
  <defs
     id="defs4317" />
  <sodipodi:namedview
     id="base"
     pagecolor="#ffffff"
     bordercolor="#666666"
     borderopacity="1.0"
     inkscape:pageopacity="0.0"
     inkscape:pageshadow="2"
     inkscape:zoom="3.959798"
     inkscape:cx="22.411467"
     inkscape:cy="13.441922"
     inkscape:document-units="px"
     inkscape:current-layer="layer1"
     showgrid="false"
     units="px"
     inkscape:window-width="715"
     inkscape:window-height="403"
     inkscape:window-x="612"
     inkscape:window-y="96"
     inkscape:window-maximized="0"
     showguides="true"
     inkscape:guide-bbox="true" />
  <metadata
     id="metadata4320">
    <rdf:RDF>
      <cc:Work
         rdf:about="">
        <dc:format>image/svg+xml</dc:format>
        <dc:type
           rdf:resource="http://purl.org/dc/dcmitype/StillImage" />
        <dc:title />
      </cc:Work>
    </rdf:RDF>
  </metadata>
  <g
     inkscape:label="Layer 1"
     inkscape:groupmode="layer"
     id="layer1"
     transform="translate(0,-1020.3622)">
    <path
       id="path4259"
       transform="translate(0,1020.3622)"
       style="color:#000000;font-style:normal;font-variant:normal;font-weight:normal;font-stretch:normal;font-size:medium;line-height:normal;font-family:sans-serif;text-indent:0;text-align:start;text-decoration:none;text-decoration-line:none;text-decoration-style:solid;text-decoration-color:#000000;letter-spacing:normal;word-spacing:normal;text-transform:none;direction:ltr;block-progression:tb;writing-mode:lr-tb;baseline-shift:baseline;text-anchor:start;white-space:normal;clip-rule:nonzero;display:inline;overflow:visible;visibility:visible;opacity:1;isolation:auto;mix-blend-mode:normal;color-interpolation:sRGB;color-interpolation-filters:linearRGB;solid-color:#000000;solid-opacity:1;fill:#000000;fill-opacity:1;fill-rule:nonzero;stroke:none;stroke-width:1;stroke-linecap:butt;stroke-linejoin:miter;stroke-miterlimit:4;stroke-dasharray:none;stroke-dashoffset:0;stroke-opacity:1;color-rendering:auto;image-rendering:auto;shape-rendering:auto;text-rendering:auto;enable-background:accumulate"
       d="m 8.4238281,5.9199219 c -1.3747896,0 -2.5,1.1252998 -2.5,2.5 0,1.3748001 1.1252104,2.5000001 2.5,2.5000001 1.3747898,0 2.4999999,-1.1252 2.4999999,-2.5000001 0,-1.3747002 -1.1252101,-2.5 -2.4999999,-2.5 z m 15.1523439,0 c -1.37479,0 -2.5,1.1252998 -2.5,2.5 0,1.3748001 1.12521,2.5000001 2.5,2.5000001 1.374789,0 2.5,-1.1252 2.5,-2.5000001 0,-1.3747002 -1.125211,-2.5 -2.5,-2.5 z M 16,13.5 c -1.37479,0 -2.5,1.1252 -2.5,2.5 0,1.3748 1.12521,2.5 2.5,2.5 1.37479,0 2.5,-1.1252 2.5,-2.5 0,-1.3748 -1.12521,-2.5 -2.5,-2.5 z m -7.5761719,7.582031 c -1.3747896,0 -2.5,1.1252 -2.5,2.5 0,1.3747 1.1252104,2.5 2.5,2.5 1.3747898,0 2.4999999,-1.1253 2.4999999,-2.5 0,-1.3748 -1.1252101,-2.5 -2.4999999,-2.5 z m 15.1523439,0 c -1.37479,0 -2.5,1.1252 -2.5,2.5 0,1.3747 1.12521,2.5 2.5,2.5 1.374789,0 2.5,-1.1253 2.5,-2.5 0,-1.3748 -1.125211,-2.5 -2.5,-2.5 z M 5.7285156,1.9991 l 20.5429684,0 C 28.346211,1.9991 30,3.6549 30,5.7296 l 0,20.541 c 0,2.0747 -1.653789,3.7285 -3.728516,3.7285 l -20.5429684,0 C 3.6537891,29.9991 2,28.3453 2,26.2706 L 2,5.7296 C 2,3.6549 3.6537891,1.9991 5.7285156,1.9991 Z m 0,-1 C 3.1170863,0.9991 1,3.1182 1,5.7296 l 0,20.541 c 0,2.6114 2.1170863,4.7285 4.7285156,4.7285 l 20.5429684,0 C 28.882914,30.9991 31,28.882 31,26.2706 L 31,5.7296 C 31,3.1182 28.882914,0.9991 26.271484,0.9991 Z" />
  </g>
</svg>
