<?xml version="1.0" encoding="UTF-8" standalone="no"?>
<!-- Created with Inkscape (http://www.inkscape.org/) -->

<svg
   xmlns:dc="http://purl.org/dc/elements/1.1/"
   xmlns:cc="http://creativecommons.org/ns#"
   xmlns:rdf="http://www.w3.org/1999/02/22-rdf-syntax-ns#"
   xmlns:svg="http://www.w3.org/2000/svg"
   xmlns="http://www.w3.org/2000/svg"
   xmlns:sodipodi="http://sodipodi.sourceforge.net/DTD/sodipodi-0.dtd"
   xmlns:inkscape="http://www.inkscape.org/namespaces/inkscape"
   width="32"
   height="32"
   viewBox="0 0 31.999999 31.999998"
   id="svg4315"
   version="1.1"
   inkscape:version="0.91 r13725"
   sodipodi:docname="6.svg">
  <defs
     id="defs4317" />
  <sodipodi:namedview
     id="base"
     pagecolor="#ffffff"
     bordercolor="#666666"
     borderopacity="1.0"
     inkscape:pageopacity="0.0"
     inkscape:pageshadow="2"
     inkscape:zoom="5.6"
     inkscape:cx="19.207876"
     inkscape:cy="15.104933"
     inkscape:document-units="px"
     inkscape:current-layer="layer1"
     showgrid="false"
     units="px"
     inkscape:window-width="715"
     inkscape:window-height="403"
     inkscape:window-x="612"
     inkscape:window-y="96"
     inkscape:window-maximized="0"
     showguides="true"
     inkscape:guide-bbox="true" />
  <metadata
     id="metadata4320">
    <rdf:RDF>
      <cc:Work
         rdf:about="">
        <dc:format>image/svg+xml</dc:format>
        <dc:type
           rdf:resource="http://purl.org/dc/dcmitype/StillImage" />
        <dc:title />
      </cc:Work>
    </rdf:RDF>
  </metadata>
  <g
     inkscape:label="Layer 1"
     inkscape:groupmode="layer"
     id="layer1"
     transform="translate(0,-1020.3622)">
    <path
       id="path4178"
       style="color:#000000;font-style:normal;font-variant:normal;font-weight:normal;font-stretch:normal;font-size:medium;line-height:normal;font-family:sans-serif;text-indent:0;text-align:start;text-decoration:none;text-decoration-line:none;text-decoration-style:solid;text-decoration-color:#000000;letter-spacing:normal;word-spacing:normal;text-transform:none;direction:ltr;block-progression:tb;writing-mode:lr-tb;baseline-shift:baseline;text-anchor:start;white-space:normal;clip-rule:nonzero;display:inline;overflow:visible;visibility:visible;opacity:1;isolation:auto;mix-blend-mode:normal;color-interpolation:sRGB;color-interpolation-filters:linearRGB;solid-color:#000000;solid-opacity:1;fill:#000000;fill-opacity:1;fill-rule:nonzero;stroke:none;stroke-width:1;stroke-linecap:butt;stroke-linejoin:miter;stroke-miterlimit:4;stroke-dasharray:none;stroke-dashoffset:0;stroke-opacity:1;color-rendering:auto;image-rendering:auto;shape-rendering:auto;text-rendering:auto;enable-background:accumulate"
       d="m 8.4238281,1041.4434 c -1.3747895,0 -2.5,1.1252 -2.5,2.5 0,1.3747 1.1252105,2.5 2.5,2.5 1.3747896,0 2.4999999,-1.1253 2.4999999,-2.5 0,-1.3748 -1.1252103,-2.5 -2.4999999,-2.5 z m 0,-7.5821 c -1.3747895,0 -2.5,1.1252 -2.5,2.5 0,1.3748 1.1252105,2.5 2.5,2.5 1.3747896,0 2.4999999,-1.1252 2.4999999,-2.5 0,-1.3748 -1.1252103,-2.5 -2.4999999,-2.5 z m 0,-7.5801 c -1.3747895,0 -2.5,1.1253 -2.5,2.5 0,1.3748 1.1252105,2.5 2.5,2.5 1.3747896,0 2.4999999,-1.1252 2.4999999,-2.5 0,-1.3747 -1.1252103,-2.5 -2.4999999,-2.5 z m 15.1523439,15.1622 c -1.37479,0 -2.5,1.1252 -2.5,2.5 0,1.3747 1.12521,2.5 2.5,2.5 1.374789,0 2.5,-1.1253 2.5,-2.5 0,-1.3748 -1.125211,-2.5 -2.5,-2.5 z m 0,-7.5821 c -1.37479,0 -2.5,1.1252 -2.5,2.5 0,1.3748 1.12521,2.5 2.5,2.5 1.374789,0 2.5,-1.1252 2.5,-2.5 0,-1.3748 -1.125211,-2.5 -2.5,-2.5 z m 0,-7.5801 c -1.37479,0 -2.5,1.1253 -2.5,2.5 0,1.3748 1.12521,2.5 2.5,2.5 1.374789,0 2.5,-1.1252 2.5,-2.5 0,-1.3747 -1.125211,-2.5 -2.5,-2.5 z M 5.7285156,1021.3613 C 3.1170863,1021.3613 1,1023.4804 1,1026.0918 l 0,20.541 c 0,2.6114 2.1170863,4.7285 4.7285156,4.7285 l 20.5429684,0 c 2.61143,0 4.728516,-2.1171 4.728516,-4.7285 l 0,-20.541 c 0,-2.6114 -2.117086,-4.7305 -4.728516,-4.7305 l -20.5429684,0 z m 0,1 20.5429684,0 c 2.074727,0 3.728516,1.6558 3.728516,3.7305 l 0,20.541 c 0,2.0747 -1.653789,3.7285 -3.728516,3.7285 l -20.5429684,0 C 3.6537891,1050.3613 2,1048.7075 2,1046.6328 l 0,-20.541 c 0,-2.0747 1.6537891,-3.7305 3.7285156,-3.7305 z" />
  </g>
</svg>
