<?xml version="1.0" encoding="UTF-8" standalone="no"?>
<!-- Created with Inkscape (http://www.inkscape.org/) -->

<svg
   xmlns:dc="http://purl.org/dc/elements/1.1/"
   xmlns:cc="http://creativecommons.org/ns#"
   xmlns:rdf="http://www.w3.org/1999/02/22-rdf-syntax-ns#"
   xmlns:svg="http://www.w3.org/2000/svg"
   xmlns="http://www.w3.org/2000/svg"
   xmlns:sodipodi="http://sodipodi.sourceforge.net/DTD/sodipodi-0.dtd"
   xmlns:inkscape="http://www.inkscape.org/namespaces/inkscape"
   width="32"
   height="32"
   viewBox="0 0 31.999999 31.999998"
   id="svg4315"
   version="1.1"
   inkscape:version="0.91 r13725"
   sodipodi:docname="down.svg">
  <defs
     id="defs4317" />
  <sodipodi:namedview
     id="base"
     pagecolor="#ffffff"
     bordercolor="#666666"
     borderopacity="1.0"
     inkscape:pageopacity="0.0"
     inkscape:pageshadow="2"
     inkscape:zoom="3.959798"
     inkscape:cx="8.8223153"
     inkscape:cy="29.718937"
     inkscape:document-units="px"
     inkscape:current-layer="layer1"
     showgrid="false"
     units="px"
     inkscape:window-width="715"
     inkscape:window-height="403"
     inkscape:window-x="612"
     inkscape:window-y="96"
     inkscape:window-maximized="0"
     showguides="true"
     inkscape:guide-bbox="true" />
  <metadata
     id="metadata4320">
    <rdf:RDF>
      <cc:Work
         rdf:about="">
        <dc:format>image/svg+xml</dc:format>
        <dc:type
           rdf:resource="http://purl.org/dc/dcmitype/StillImage" />
        <dc:title />
      </cc:Work>
    </rdf:RDF>
  </metadata>
  <g
     inkscape:label="Layer 1"
     inkscape:groupmode="layer"
     id="layer1"
     transform="translate(0,-1020.3622)">
    <path
       style="color:#000000;font-style:normal;font-variant:normal;font-weight:normal;font-stretch:normal;font-size:medium;line-height:normal;font-family:sans-serif;text-indent:0;text-align:start;text-decoration:none;text-decoration-line:none;text-decoration-style:solid;text-decoration-color:#000000;letter-spacing:normal;word-spacing:normal;text-transform:none;direction:ltr;block-progression:tb;writing-mode:lr-tb;baseline-shift:baseline;text-anchor:start;white-space:normal;clip-rule:nonzero;display:inline;overflow:visible;visibility:visible;opacity:1;isolation:auto;mix-blend-mode:normal;color-interpolation:sRGB;color-interpolation-filters:linearRGB;solid-color:#000000;solid-opacity:1;fill:#000000;fill-opacity:1;fill-rule:nonzero;stroke:none;stroke-width:0.99999988;stroke-linecap:butt;stroke-linejoin:miter;stroke-miterlimit:4;stroke-dasharray:none;stroke-dashoffset:0;stroke-opacity:1;color-rendering:auto;image-rendering:auto;shape-rendering:auto;text-rendering:auto;enable-background:accumulate"
       d="m 14.259766,1021.3613 c -0.634378,0 -1.060547,0.5804 -1.060547,1.1778 l 0,15.1386 c -0.95063,0.058 -1.87573,0.1289 -2.574219,0.252 -0.413903,0.073 -0.7676198,0.1559 -1.0625,0.2637 -0.2948802,0.1077 -0.5601821,0.2049 -0.7441406,0.5293 -0.243132,0.4286 -0.1224069,0.7751 -0.00781,1.2226 0.1145944,0.4476 0.3089413,0.9789 0.5625,1.5781 0.5071174,1.1985 1.2520351,2.6586 2.0605471,4.084 0.808511,1.4254 1.679045,2.8129 2.445312,3.8594 0.383134,0.5232 0.738314,0.9597 1.0625,1.2852 0.162094,0.1627 0.31508,0.2989 0.476563,0.4062 0.161483,0.1073 0.332426,0.2031 0.582031,0.2031 0.249607,0 0.42055,-0.096 0.582031,-0.2031 0.161482,-0.1073 0.314471,-0.2435 0.476563,-0.4062 0.324184,-0.3255 0.679367,-0.762 1.0625,-1.2852 0.766265,-1.0465 1.6368,-2.434 2.445312,-3.8594 0.808512,-1.4254 1.553426,-2.8855 2.060547,-4.084 0.253561,-0.5992 0.447903,-1.1305 0.5625,-1.5781 0.114597,-0.4475 0.23531,-0.794 -0.0078,-1.2226 -0.174549,-0.3078 -0.423447,-0.4071 -0.697266,-0.5118 -0.273819,-0.1046 -0.600085,-0.1844 -0.980469,-0.2558 -0.632918,-0.1188 -1.475434,-0.1905 -2.339844,-0.252 l 0,-15.164 c 0,-0.5974 -0.426169,-1.1778 -1.060546,-1.1778 l -3.84375,0 z m 0,1 3.84375,0 c -0.01298,0 0.06055,0.024 0.06055,0.1778 l 0,16.0839 0.470704,0.027 c 1.049264,0.06 1.994663,0.1578 2.683593,0.2871 0.344466,0.065 0.62639,0.1394 0.808594,0.209 0.182204,0.07 0.237513,0.1634 0.183594,0.068 -0.07447,-0.1313 0.0037,0.117 -0.08984,0.4825 -0.09358,0.3654 -0.273778,0.8659 -0.515625,1.4375 -0.483693,1.143 -1.214158,2.5812 -2.007812,3.9804 -0.793655,1.3993 -1.652316,2.7622 -2.382813,3.7598 -0.365248,0.4988 -0.699437,0.9074 -0.962891,1.1719 -0.131726,0.1322 -0.246913,0.2272 -0.322265,0.2773 -0.07535,0.05 -0.110254,0.037 -0.0293,0.037 0.08095,0 0.04606,0.013 -0.0293,-0.037 -0.07535,-0.05 -0.190538,-0.1451 -0.322265,-0.2773 -0.263455,-0.2645 -0.597642,-0.6731 -0.962891,-1.1719 -0.730499,-0.9976 -1.589159,-2.3605 -2.382813,-3.7598 -0.793653,-1.3992 -1.524123,-2.8374 -2.007812,-3.9804 -0.241845,-0.5716 -0.4220481,-1.0721 -0.5156251,-1.4375 -0.093577,-0.3655 -0.015367,-0.6138 -0.089844,-0.4825 -0.056418,0.1 0.010789,-0.01 0.2148438,-0.082 0.2040551,-0.075 0.5157531,-0.152 0.8945311,-0.2187 0.757557,-0.1336 1.790266,-0.231 2.923828,-0.2852 l 0.476563,-0.021 0,-16.0683 c 0,-0.1537 0.07352,-0.1778 0.06055,-0.1778 z"
       id="rect5191-8"
       inkscape:connector-curvature="0" />
  </g>
</svg>
