<?xml version="1.0" encoding="UTF-8" standalone="no"?>
<!-- Created with Inkscape (http://www.inkscape.org/) -->

<svg
   xmlns:dc="http://purl.org/dc/elements/1.1/"
   xmlns:cc="http://creativecommons.org/ns#"
   xmlns:rdf="http://www.w3.org/1999/02/22-rdf-syntax-ns#"
   xmlns:svg="http://www.w3.org/2000/svg"
   xmlns="http://www.w3.org/2000/svg"
   xmlns:sodipodi="http://sodipodi.sourceforge.net/DTD/sodipodi-0.dtd"
   xmlns:inkscape="http://www.inkscape.org/namespaces/inkscape"
   width="32"
   height="32"
   viewBox="0 0 31.999999 31.999998"
   id="svg4315"
   version="1.1"
   inkscape:version="0.91 r13725"
   sodipodi:docname="envelope.svg">
  <defs
     id="defs4317" />
  <sodipodi:namedview
     id="base"
     pagecolor="#ffffff"
     bordercolor="#666666"
     borderopacity="1.0"
     inkscape:pageopacity="0.0"
     inkscape:pageshadow="2"
     inkscape:zoom="3.959798"
     inkscape:cx="-0.12531287"
     inkscape:cy="33.173676"
     inkscape:document-units="px"
     inkscape:current-layer="layer1"
     showgrid="false"
     units="px"
     inkscape:window-width="715"
     inkscape:window-height="403"
     inkscape:window-x="612"
     inkscape:window-y="96"
     inkscape:window-maximized="0"
     showguides="true"
     inkscape:guide-bbox="true" />
  <metadata
     id="metadata4320">
    <rdf:RDF>
      <cc:Work
         rdf:about="">
        <dc:format>image/svg+xml</dc:format>
        <dc:type
           rdf:resource="http://purl.org/dc/dcmitype/StillImage" />
        <dc:title />
      </cc:Work>
    </rdf:RDF>
  </metadata>
  <g
     inkscape:label="Layer 1"
     inkscape:groupmode="layer"
     id="layer1"
     transform="translate(0,-1020.3622)">
    <path
       style="color:#000000;font-style:normal;font-variant:normal;font-weight:normal;font-stretch:normal;font-size:medium;line-height:normal;font-family:sans-serif;text-indent:0;text-align:start;text-decoration:none;text-decoration-line:none;text-decoration-style:solid;text-decoration-color:#000000;letter-spacing:normal;word-spacing:normal;text-transform:none;direction:ltr;block-progression:tb;writing-mode:lr-tb;baseline-shift:baseline;text-anchor:start;white-space:normal;clip-rule:nonzero;display:inline;overflow:visible;visibility:visible;opacity:1;isolation:auto;mix-blend-mode:normal;color-interpolation:sRGB;color-interpolation-filters:linearRGB;solid-color:#000000;solid-opacity:1;fill:#000000;fill-opacity:1;fill-rule:nonzero;stroke:none;stroke-width:1;stroke-linecap:butt;stroke-linejoin:miter;stroke-miterlimit:4;stroke-dasharray:none;stroke-dashoffset:0;stroke-opacity:1;color-rendering:auto;image-rendering:auto;shape-rendering:auto;text-rendering:auto;enable-background:accumulate"
       d="M 2.9667969,6.4980469 C 1.8848787,6.4980469 1,7.387503 1,8.4707031 L 1,23.53125 c 0,1.0832 0.8848787,1.972656 1.9667969,1.972656 l 26.0664061,0 C 30.115121,25.503906 31,24.61445 31,23.53125 L 31,8.4707031 C 31,7.387503 30.115121,6.4980469 29.033203,6.4980469 Z m 0,1 25.6289061,0 L 15.578125,14.949219 2.734375,7.5429688 c 0.076174,-0.018653 0.1496409,-0.044922 0.2324219,-0.044922 z M 29.828125,7.9394531 C 29.928152,8.0928531 30,8.2682763 30,8.4707031 L 30,23.53125 c 0,0.18417 -0.06059,0.343576 -0.144531,0.488281 L 19.699219,13.816406 Z M 2.0351562,8.2929688 11.296875,13.666016 2,23.007812 2,8.4707031 c 0,-0.063446 0.024297,-0.1180947 0.035156,-0.1777343 z m 10.1582028,5.8925782 3.433594,1.992187 3.175781,-1.841796 10.125,10.167968 -25.9609371,0 c -0.2920116,0 -0.5430161,-0.129325 -0.71875,-0.328125 z"
       transform="translate(0,1020.3622)"
       id="rect5145"
       inkscape:connector-curvature="0"
       sodipodi:nodetypes="sssssssssscccscssccccccscccccscc" />
  </g>
</svg>
