<?xml version="1.0" encoding="UTF-8" standalone="no"?>
<!-- Created with Inkscape (http://www.inkscape.org/) -->

<svg
   xmlns:dc="http://purl.org/dc/elements/1.1/"
   xmlns:cc="http://creativecommons.org/ns#"
   xmlns:rdf="http://www.w3.org/1999/02/22-rdf-syntax-ns#"
   xmlns:svg="http://www.w3.org/2000/svg"
   xmlns="http://www.w3.org/2000/svg"
   xmlns:sodipodi="http://sodipodi.sourceforge.net/DTD/sodipodi-0.dtd"
   xmlns:inkscape="http://www.inkscape.org/namespaces/inkscape"
   width="32"
   height="32"
   viewBox="0 0 31.999999 31.999998"
   id="svg4315"
   version="1.1"
   inkscape:version="0.91 r13725"
   sodipodi:docname="envelope_open.svg">
  <defs
     id="defs4317" />
  <sodipodi:namedview
     id="base"
     pagecolor="#ffffff"
     bordercolor="#666666"
     borderopacity="1.0"
     inkscape:pageopacity="0.0"
     inkscape:pageshadow="2"
     inkscape:zoom="3.959798"
     inkscape:cx="26.427092"
     inkscape:cy="13.41957"
     inkscape:document-units="px"
     inkscape:current-layer="layer1"
     showgrid="false"
     units="px"
     inkscape:window-width="715"
     inkscape:window-height="403"
     inkscape:window-x="612"
     inkscape:window-y="96"
     inkscape:window-maximized="0"
     showguides="true"
     inkscape:guide-bbox="true" />
  <metadata
     id="metadata4320">
    <rdf:RDF>
      <cc:Work
         rdf:about="">
        <dc:format>image/svg+xml</dc:format>
        <dc:type
           rdf:resource="http://purl.org/dc/dcmitype/StillImage" />
        <dc:title />
      </cc:Work>
    </rdf:RDF>
  </metadata>
  <g
     inkscape:label="Layer 1"
     inkscape:groupmode="layer"
     id="layer1"
     transform="translate(0,-1020.3622)">
    <path
       style="color:#000000;font-style:normal;font-variant:normal;font-weight:normal;font-stretch:normal;font-size:medium;line-height:normal;font-family:sans-serif;text-indent:0;text-align:start;text-decoration:none;text-decoration-line:none;text-decoration-style:solid;text-decoration-color:#000000;letter-spacing:normal;word-spacing:normal;text-transform:none;direction:ltr;block-progression:tb;writing-mode:lr-tb;baseline-shift:baseline;text-anchor:start;white-space:normal;clip-rule:nonzero;display:inline;overflow:visible;visibility:visible;opacity:1;isolation:auto;mix-blend-mode:normal;color-interpolation:sRGB;color-interpolation-filters:linearRGB;solid-color:#000000;solid-opacity:1;fill:#000000;fill-opacity:1;fill-rule:evenodd;stroke:none;stroke-width:1px;stroke-linecap:butt;stroke-linejoin:miter;stroke-miterlimit:4;stroke-dasharray:none;stroke-dashoffset:0;stroke-opacity:1;color-rendering:auto;image-rendering:auto;shape-rendering:auto;text-rendering:auto;enable-background:accumulate"
       d="m 15.902344,2.6425781 -3.542969,2.0488281 -5.7421875,0 -0.00586,0.4921876 L 6.5742188,8.0371094 2.21875,10.556641 c -0.1475456,0.06139 -0.2830481,0.142525 -0.4101562,0.236328 l -0.1152344,0.06641 0.011719,0.01953 C 1.2781312,11.240965 1,11.775262 1,12.375 l 0,15.015625 c 0,1.0815 0.8856682,1.96875 1.9667969,1.96875 l 26.0664061,0 C 30.114332,29.359375 31,28.472125 31,27.390625 L 31,12.375 c 0,-0.959125 -0.697769,-1.763316 -1.609375,-1.933594 l -4.298828,-2.4843748 0,-3.265625 -5.646485,0 z m 0,1.1542969 1.546875,0.8945312 -3.09375,0 z m 9.189453,5.3144531 2.238281,1.2949219 -2.238281,0 z m -18.5312501,0.087891 -0.015625,1.2070309 -2.0722657,0 z m -3.59375,2.2070309 3.5664062,0 -0.021484,1.712891 -3.671875,-1.6875 c 0.043489,-0.0057 0.081614,-0.02539 0.1269528,-0.02539 z m 22.1250001,0 3.3125,0 -3.3125,1.529297 z m 4.617187,0.271484 C 29.888686,11.85235 30,12.096941 30,12.375 l 0,15.015625 c 0,0.182702 -0.06102,0.340451 -0.144531,0.484375 l -10.820313,-10.837891 -0.232422,-0.0039 6.289063,-2.964844 0,-0.03125 4.703125,-2.171875 z M 2.0410156,12.164062 7.8261719,14.824219 11.921875,16.929688 2,26.867188 2,12.375 c 0,-0.07518 0.025741,-0.1412 0.041016,-0.210938 z m 14.8652344,4.658208 -2.863281,0.07227 -6.5371096,-3.36329 0.099609,-7.8398438 16.4863286,0 0,7.7070318 z m -4.564453,1.101558 6.271484,0.107422 10.310547,10.328125 -25.9570311,0 c -0.2915294,0 -0.5412215,-0.12914 -0.7167969,-0.326172 z"
       transform="translate(0,1020.3622)"
       id="path5147-1-7"
       inkscape:connector-curvature="0"
       sodipodi:nodetypes="cccccccccsssssscccccccccccccccccscccscccccsscccccccccccscccccccccccscc" />
  </g>
</svg>
