<?xml version="1.0" encoding="UTF-8" standalone="no"?>
<!-- Created with Inkscape (http://www.inkscape.org/) -->

<svg
   xmlns:dc="http://purl.org/dc/elements/1.1/"
   xmlns:cc="http://creativecommons.org/ns#"
   xmlns:rdf="http://www.w3.org/1999/02/22-rdf-syntax-ns#"
   xmlns:svg="http://www.w3.org/2000/svg"
   xmlns="http://www.w3.org/2000/svg"
   xmlns:sodipodi="http://sodipodi.sourceforge.net/DTD/sodipodi-0.dtd"
   xmlns:inkscape="http://www.inkscape.org/namespaces/inkscape"
   width="32"
   height="32"
   viewBox="0 0 31.999999 31.999998"
   id="svg4315"
   version="1.1"
   inkscape:version="0.91 r13725"
   sodipodi:docname="repeat.svg">
  <defs
     id="defs4317" />
  <sodipodi:namedview
     id="base"
     pagecolor="#ffffff"
     bordercolor="#666666"
     borderopacity="1.0"
     inkscape:pageopacity="0.0"
     inkscape:pageshadow="2"
     inkscape:zoom="3.959798"
     inkscape:cx="21.091696"
     inkscape:cy="23.850365"
     inkscape:document-units="px"
     inkscape:current-layer="layer1"
     showgrid="false"
     units="px"
     inkscape:window-width="715"
     inkscape:window-height="403"
     inkscape:window-x="612"
     inkscape:window-y="96"
     inkscape:window-maximized="0"
     showguides="true"
     inkscape:guide-bbox="true" />
  <metadata
     id="metadata4320">
    <rdf:RDF>
      <cc:Work
         rdf:about="">
        <dc:format>image/svg+xml</dc:format>
        <dc:type
           rdf:resource="http://purl.org/dc/dcmitype/StillImage" />
        <dc:title />
      </cc:Work>
    </rdf:RDF>
  </metadata>
  <g
     inkscape:label="Layer 1"
     inkscape:groupmode="layer"
     id="layer1"
     transform="translate(0,-1020.3622)">
    <path
       id="path5247-0-7-81-5"
       style="color:#000000;font-style:normal;font-variant:normal;font-weight:normal;font-stretch:normal;font-size:medium;line-height:normal;font-family:sans-serif;text-indent:0;text-align:start;text-decoration:none;text-decoration-line:none;text-decoration-style:solid;text-decoration-color:#000000;letter-spacing:normal;word-spacing:normal;text-transform:none;direction:ltr;block-progression:tb;writing-mode:lr-tb;baseline-shift:baseline;text-anchor:start;white-space:normal;clip-rule:nonzero;display:inline;overflow:visible;visibility:visible;opacity:1;isolation:auto;mix-blend-mode:normal;color-interpolation:sRGB;color-interpolation-filters:linearRGB;solid-color:#000000;solid-opacity:1;fill:#000000;fill-opacity:1;fill-rule:nonzero;stroke:none;stroke-width:1;stroke-linecap:butt;stroke-linejoin:miter;stroke-miterlimit:4;stroke-dasharray:none;stroke-dashoffset:0;stroke-opacity:1;color-rendering:auto;image-rendering:auto;shape-rendering:auto;text-rendering:auto;enable-background:accumulate"
       d="m 28.955078,1030.2949 c -0.375011,0.097 -0.813221,0.2614 -1.308594,0.4766 -0.990745,0.4304 -2.203868,1.0659 -3.419922,1.7715 -1.216053,0.7055 -2.432633,1.4807 -3.423828,2.1914 -0.831888,0.5964 -1.360117,1.0862 -1.771484,1.5742 l -0.109375,-0.045 -0.228516,0.3398 c -0.0011,0 -8.18e-4,0 -0.002,0.01 -0.105284,0.1584 -0.18532,0.3242 -0.193359,0.539 l -0.002,0.01 0,0.01 c -0.0047,0.3423 0.15446,0.5385 0.324218,0.75 0.169759,0.2114 0.389941,0.4265 0.65625,0.6582 0.417787,0.3634 1.014589,0.7843 1.615235,1.205 -1.884701,2.8035 -5.517004,3.7667 -8.408203,2.0996 l -0.433594,-0.25 -2.828125,4.8946 0.4335938,0.25 c 5.5003602,3.1716 12.5072092,1.2261 15.9667972,-4.2227 0.805183,0.3955 1.58941,0.7623 2.214843,0.9863 0.362108,0.1298 0.680362,0.223 0.966797,0.2715 0.286436,0.049 0.547974,0.096 0.857422,-0.088 0.409136,-0.2435 0.469105,-0.5807 0.585938,-0.9921 0.116833,-0.4114 0.2084,-0.9241 0.285156,-1.5176 0.153512,-1.1871 0.242875,-2.6898 0.263672,-4.1934 0.0208,-1.5036 -0.0257,-3.0037 -0.146485,-4.1875 -0.06039,-0.5919 -0.138196,-1.1036 -0.24414,-1.5137 -0.05297,-0.205 -0.111686,-0.3837 -0.191407,-0.5468 -0.07972,-0.1632 -0.173279,-0.3273 -0.384765,-0.4492 -0.396545,-0.2287 -0.699207,-0.1169 -1.074219,-0.02 z m 0.90625,13.4199 -0.255859,0.07 0.138672,0 0.117187,-0.07 z m -0.332031,-12.5332 c -0.07886,-0.045 -0.04771,-0.048 -0.01367,0.022 0.03403,0.07 0.0789,0.1961 0.121094,0.3594 0.08439,0.3266 0.159466,0.8014 0.216797,1.3633 0.114661,1.1237 0.162961,2.5986 0.142578,4.0722 -0.02038,1.4737 -0.108036,2.9502 -0.253906,4.0782 -0.07294,0.564 -0.161906,1.0422 -0.25586,1.373 -0.09395,0.3309 -0.276275,0.4893 -0.136719,0.4063 0.105607,-0.063 0.0128,-0.01 -0.177734,-0.039 -0.190535,-0.032 -0.470133,-0.1088 -0.798828,-0.2266 -0.65739,-0.2354 -1.519992,-0.6269 -2.449219,-1.0957 l -0.419922,-0.2109 -0.238281,0.4063 c -3.00267,5.1561 -9.33956,6.9778 -14.425781,4.371 l 1.828125,-3.1601 c 3.421887,1.655 7.610855,0.4477 9.580078,-2.959 l 0.234375,-0.4043 -0.386719,-0.2598 c -0.790269,-0.5345 -1.484309,-1.0465 -1.962891,-1.4628 -0.23929,-0.2082 -0.424928,-0.3945 -0.533203,-0.5293 -0.09546,-0.1189 -0.09064,-0.1596 -0.0918,-0.098 l 0.01758,-0.027 0.0039,-0.01 c 0.169302,-0.26 0.901759,-0.9223 1.857422,-1.6074 0.955662,-0.6852 2.150235,-1.4474 3.341797,-2.1387 1.191561,-0.6913 2.382713,-1.3131 3.316406,-1.7187 0.466846,-0.2029 0.87073,-0.3507 1.160156,-0.4258 0.289426,-0.075 0.472099,0 0.324219,-0.082 z m -11.833985,-6.6914 c -4.4343,-0.5051 -8.944509,1.6369 -11.5175776,5.6895 -0.8051833,-0.3955 -1.5894104,-0.7623 -2.2148438,-0.9863 -0.3621079,-0.1297 -0.6803613,-0.223 -0.9667968,-0.2715 -0.2864356,-0.049 -0.5479743,-0.096 -0.8574219,0.088 -0.4091357,0.2435 -0.4691044,0.5808 -0.5859375,0.9922 -0.1168331,0.4113 -0.2084002,0.924 -0.2851563,1.5175 -0.1535122,1.1871 -0.2428749,2.6898 -0.2636719,4.1934 -0.0207969,1.5036 0.025697,3.0037 0.1464844,4.1875 0.060394,0.5919 0.1381968,1.1017 0.2441406,1.5117 0.052972,0.205 0.1116863,0.3857 0.1914063,0.5488 0.07972,0.1632 0.1732792,0.3254 0.3847656,0.4473 0.3965449,0.2287 0.6992073,0.1188 1.0742188,0.021 0.3750114,-0.097 0.8132208,-0.2614 1.3085937,-0.4766 0.9907458,-0.4304 2.2038686,-1.0659 3.4199219,-1.7715 1.2160533,-0.7055 2.4326335,-1.4807 3.4238285,-2.1914 0.831888,-0.5964 1.360117,-1.0862 1.771484,-1.5742 l 0.109375,0.045 0.228516,-0.3398 c 0.0011,0 8.18e-4,0 0.002,-0.01 0.105284,-0.1584 0.18532,-0.3242 0.193359,-0.539 l 0.002,-0.01 0,-0.01 c 0.0047,-0.3424 -0.15446,-0.5386 -0.324218,-0.75 -0.169759,-0.2115 -0.389941,-0.4266 -0.65625,-0.6583 -0.41803,-0.3636 -1.014161,-0.7859 -1.615235,-1.207 1.884911,-2.8026 5.51736,-3.7646 8.408203,-2.0976 l 0.433594,0.25 2.828125,-4.8946 -0.433594,-0.25 c -1.409444,-0.8127 -2.921484,-1.2927 -4.449219,-1.4668 z m -15.5566401,4.5196 0.2558593,-0.07 -0.1386718,0 -0.1171875,0.07 z m 15.4355471,-3.5313 c 1.231562,0.1407 2.431369,0.5919 3.585937,1.1836 l -1.828125,3.1621 c -3.421887,-1.655 -7.610855,-0.4477 -9.5800779,2.959 l -0.234375,0.4043 0.3867188,0.2598 c 0.7902691,0.5345 1.4843091,1.0465 1.9628911,1.4629 0.23929,0.2081 0.424928,0.3944 0.533203,0.5293 0.09546,0.1188 0.09064,0.1595 0.0918,0.098 l -0.01758,0.027 -0.0039,0.01 c -0.169302,0.26 -0.901759,0.9223 -1.857422,1.6074 -0.9556624,0.6852 -2.1502354,1.4474 -3.3417966,2.1387 -1.1915612,0.6914 -2.3827138,1.3131 -3.3164063,1.7188 -0.4668462,0.2028 -0.87073,0.3506 -1.1601562,0.4257 -0.2894262,0.075 -0.4720991,0 -0.3242188,0.082 0.07886,0.045 0.047705,0.048 0.013672,-0.021 -0.034033,-0.07 -0.078897,-0.1961 -0.1210938,-0.3594 -0.084393,-0.3266 -0.1594661,-0.8014 -0.2167968,-1.3633 -0.1146615,-1.1237 -0.1629611,-2.5986 -0.1425782,-4.0722 0.020383,-1.4737 0.1080361,-2.9502 0.2539063,-4.0782 0.072935,-0.5639 0.1619056,-1.0422 0.2558594,-1.373 0.093954,-0.3308 0.2762751,-0.4893 0.1367187,-0.4063 -0.1056057,0.063 -0.012801,0 0.1777344,0.037 0.190535,0.032 0.4701331,0.1108 0.7988281,0.2286 0.6573901,0.2354 1.5199923,0.6249 2.4492188,1.0937 l 0.4199219,0.2129 0.2382812,-0.4062 c 2.3210644,-3.9856 6.6460049,-6.0359 10.8398439,-5.5567 z" />
  </g>
</svg>
