<?xml version="1.0" encoding="UTF-8" standalone="no"?>
<!-- Created with Inkscape (http://www.inkscape.org/) -->

<svg
   xmlns:dc="http://purl.org/dc/elements/1.1/"
   xmlns:cc="http://creativecommons.org/ns#"
   xmlns:rdf="http://www.w3.org/1999/02/22-rdf-syntax-ns#"
   xmlns:svg="http://www.w3.org/2000/svg"
   xmlns="http://www.w3.org/2000/svg"
   xmlns:sodipodi="http://sodipodi.sourceforge.net/DTD/sodipodi-0.dtd"
   xmlns:inkscape="http://www.inkscape.org/namespaces/inkscape"
   width="32"
   height="32"
   viewBox="0 0 31.999999 31.999998"
   id="svg4315"
   version="1.1"
   inkscape:version="0.91 r13725"
   sodipodi:docname="right.svg">
  <defs
     id="defs4317" />
  <sodipodi:namedview
     id="base"
     pagecolor="#ffffff"
     bordercolor="#666666"
     borderopacity="1.0"
     inkscape:pageopacity="0.0"
     inkscape:pageshadow="2"
     inkscape:zoom="2.8"
     inkscape:cx="10.939354"
     inkscape:cy="36.570255"
     inkscape:document-units="px"
     inkscape:current-layer="layer1"
     showgrid="false"
     units="px"
     inkscape:window-width="715"
     inkscape:window-height="403"
     inkscape:window-x="612"
     inkscape:window-y="96"
     inkscape:window-maximized="0"
     showguides="true"
     inkscape:guide-bbox="true" />
  <metadata
     id="metadata4320">
    <rdf:RDF>
      <cc:Work
         rdf:about="">
        <dc:format>image/svg+xml</dc:format>
        <dc:type
           rdf:resource="http://purl.org/dc/dcmitype/StillImage" />
        <dc:title />
      </cc:Work>
    </rdf:RDF>
  </metadata>
  <g
     inkscape:label="Layer 1"
     inkscape:groupmode="layer"
     id="layer1"
     transform="translate(0,-1020.3622)">
    <path
       style="color:#000000;font-style:normal;font-variant:normal;font-weight:normal;font-stretch:normal;font-size:medium;line-height:normal;font-family:sans-serif;text-indent:0;text-align:start;text-decoration:none;text-decoration-line:none;text-decoration-style:solid;text-decoration-color:#000000;letter-spacing:normal;word-spacing:normal;text-transform:none;direction:ltr;block-progression:tb;writing-mode:lr-tb;baseline-shift:baseline;text-anchor:start;white-space:normal;clip-rule:nonzero;display:inline;overflow:visible;visibility:visible;opacity:1;isolation:auto;mix-blend-mode:normal;color-interpolation:sRGB;color-interpolation-filters:linearRGB;solid-color:#000000;solid-opacity:1;fill:#000000;fill-opacity:1;fill-rule:nonzero;stroke:none;stroke-width:0.99999988;stroke-linecap:butt;stroke-linejoin:miter;stroke-miterlimit:4;stroke-dasharray:none;stroke-dashoffset:0;stroke-opacity:1;color-rendering:auto;image-rendering:auto;shape-rendering:auto;text-rendering:auto;enable-background:accumulate"
       d="m 19.583984,1029.1719 c -0.447545,-0.1146 -0.795983,-0.2334 -1.224609,0.01 -0.307734,0.1746 -0.405157,0.4235 -0.509766,0.6973 -0.104608,0.2738 -0.186424,0.6001 -0.257812,0.9805 -0.118862,0.6333 -0.188497,1.4747 -0.25,2.3398 l -15.1640626,0 C 1.580304,1033.1992 1,1033.6254 1,1034.2598 l 0,3.8418 c 0,0.6343 0.580304,1.0605 1.1777344,1.0605 l 15.1386716,0 c 0.05796,0.9513 0.128757,1.8753 0.251953,2.5742 0.07296,0.4139 0.15595,0.7696 0.263672,1.0645 0.107722,0.2949 0.20297,0.5582 0.527344,0.7422 0.428621,0.2431 0.777064,0.1224 1.224609,0.01 0.447545,-0.1146 0.978915,-0.309 1.578125,-0.5625 1.198421,-0.5071 2.658565,-1.2501 4.083985,-2.0586 1.42542,-0.8085 2.810919,-1.6791 3.857422,-2.4453 0.523251,-0.3832 0.961611,-0.7383 1.287109,-1.0625 0.162749,-0.1621 0.298945,-0.3151 0.40625,-0.4766 C 30.90418,1036.7838 31,1036.6109 31,1036.3613 c 0,-0.2496 -0.09582,-0.4205 -0.203125,-0.582 -0.107305,-0.1615 -0.243502,-0.3145 -0.40625,-0.4766 -0.325497,-0.3242 -0.763859,-0.6793 -1.287109,-1.0625 -1.046501,-0.7662 -2.432003,-1.6368 -3.857422,-2.4453 -1.425419,-0.8085 -2.885565,-1.5514 -4.083985,-2.0586 -0.59921,-0.2535 -1.13058,-0.4498 -1.578125,-0.5644 z m -0.730468,0.8789 c -0.131304,0.074 0.116958,-0 0.482422,0.09 0.365463,0.094 0.864019,0.2738 1.435546,0.5156 1.143055,0.4837 2.581245,1.2162 3.980469,2.0098 1.399225,0.7937 2.764067,1.6504 3.761719,2.3809 0.498826,0.3652 0.907355,0.7014 1.171875,0.9648 0.13226,0.1317 0.227272,0.2469 0.277344,0.3223 0.05007,0.075 0.03711,0.1083 0.03711,0.027 0,-0.081 0.01296,-0.046 -0.03711,0.029 -0.05007,0.075 -0.145085,0.1906 -0.277344,0.3223 -0.264519,0.2634 -0.67305,0.5996 -1.171875,0.9648 -0.99765,0.7305 -2.362495,1.5873 -3.761719,2.3809 -1.399224,0.7936 -2.837414,1.5261 -3.980469,2.0098 -0.571527,0.2418 -1.070083,0.4201 -1.435546,0.5136 -0.365464,0.094 -0.613721,0.017 -0.482422,0.092 0.09953,0.056 -0.0075,-0.013 -0.08203,-0.2168 -0.07454,-0.204 -0.151985,-0.5157 -0.21875,-0.8945 -0.133528,-0.7575 -0.231043,-1.7903 -0.285156,-2.9238 l -0.02344,-0.4766 -16.0664066,0 C 2.0241448,1038.1621 2,1038.0886 2,1038.1016 l 0,-3.8418 c 0,0.013 0.024145,-0.061 0.1777344,-0.061 l 16.0839846,0 0.02734,-0.4726 c 0.05974,-1.0493 0.157813,-1.9947 0.28711,-2.6836 0.06465,-0.3445 0.13742,-0.6245 0.207031,-0.8067 0.06961,-0.1822 0.165362,-0.2394 0.07031,-0.1855 z"
       id="rect5191-8-2"
       inkscape:connector-curvature="0" />
  </g>
</svg>
