<?xml version="1.0" encoding="UTF-8" standalone="no"?>
<!-- Created with Inkscape (http://www.inkscape.org/) -->

<svg
   xmlns:dc="http://purl.org/dc/elements/1.1/"
   xmlns:cc="http://creativecommons.org/ns#"
   xmlns:rdf="http://www.w3.org/1999/02/22-rdf-syntax-ns#"
   xmlns:svg="http://www.w3.org/2000/svg"
   xmlns="http://www.w3.org/2000/svg"
   xmlns:sodipodi="http://sodipodi.sourceforge.net/DTD/sodipodi-0.dtd"
   xmlns:inkscape="http://www.inkscape.org/namespaces/inkscape"
   width="32"
   height="32"
   viewBox="0 0 31.999999 31.999998"
   id="svg4315"
   version="1.1"
   inkscape:version="0.91 r13725"
   sodipodi:docname="up.svg">
  <defs
     id="defs4317" />
  <sodipodi:namedview
     id="base"
     pagecolor="#ffffff"
     bordercolor="#666666"
     borderopacity="1.0"
     inkscape:pageopacity="0.0"
     inkscape:pageshadow="2"
     inkscape:zoom="2.8"
     inkscape:cx="10.449768"
     inkscape:cy="34.815024"
     inkscape:document-units="px"
     inkscape:current-layer="layer1"
     showgrid="false"
     units="px"
     inkscape:window-width="715"
     inkscape:window-height="403"
     inkscape:window-x="612"
     inkscape:window-y="96"
     inkscape:window-maximized="0"
     showguides="true"
     inkscape:guide-bbox="true" />
  <metadata
     id="metadata4320">
    <rdf:RDF>
      <cc:Work
         rdf:about="">
        <dc:format>image/svg+xml</dc:format>
        <dc:type
           rdf:resource="http://purl.org/dc/dcmitype/StillImage" />
        <dc:title />
      </cc:Work>
    </rdf:RDF>
  </metadata>
  <g
     inkscape:label="Layer 1"
     inkscape:groupmode="layer"
     id="layer1"
     transform="translate(0,-1020.3622)">
    <path
       style="color:#000000;font-style:normal;font-variant:normal;font-weight:normal;font-stretch:normal;font-size:medium;line-height:normal;font-family:sans-serif;text-indent:0;text-align:start;text-decoration:none;text-decoration-line:none;text-decoration-style:solid;text-decoration-color:#000000;letter-spacing:normal;word-spacing:normal;text-transform:none;direction:ltr;block-progression:tb;writing-mode:lr-tb;baseline-shift:baseline;text-anchor:start;white-space:normal;clip-rule:nonzero;display:inline;overflow:visible;visibility:visible;opacity:1;isolation:auto;mix-blend-mode:normal;color-interpolation:sRGB;color-interpolation-filters:linearRGB;solid-color:#000000;solid-opacity:1;fill:#000000;fill-opacity:1;fill-rule:nonzero;stroke:none;stroke-width:0.99999988;stroke-linecap:butt;stroke-linejoin:miter;stroke-miterlimit:4;stroke-dasharray:none;stroke-dashoffset:0;stroke-opacity:1;color-rendering:auto;image-rendering:auto;shape-rendering:auto;text-rendering:auto;enable-background:accumulate"
       d="m 16,1021.3613 c -0.249606,0 -0.420549,0.098 -0.582031,0.2051 -0.161482,0.1073 -0.31447,0.2416 -0.476563,0.4043 -0.324185,0.3255 -0.679367,0.7639 -1.0625,1.2871 -0.766266,1.0465 -1.636801,2.432 -2.445312,3.8574 -0.808512,1.4255 -1.5534285,2.8876 -2.0605471,4.086 -0.2535593,0.5992 -0.4479047,1.1306 -0.5625,1.5781 -0.1145954,0.4475 -0.2353165,0.794 0.00781,1.2227 0.1745696,0.3077 0.4234582,0.4051 0.6972656,0.5097 0.2738074,0.1046 0.600088,0.1864 0.980469,0.2578 0.632913,0.1188 1.475429,0.1905 2.339844,0.252 l 0,15.164 c 0,0.5974 0.426169,1.1758 1.060546,1.1758 l 3.84375,0 c 0.634378,0 1.060547,-0.5784 1.060547,-1.1758 l 0,-15.1386 c 0.950631,-0.058 1.875726,-0.1289 2.574219,-0.252 0.413905,-0.073 0.767617,-0.1559 1.0625,-0.2637 0.294883,-0.1077 0.560175,-0.2049 0.744141,-0.5292 0.243125,-0.4287 0.122408,-0.7752 0.0078,-1.2227 -0.114596,-0.4475 -0.30894,-0.9789 -0.5625,-1.5781 -0.50712,-1.1984 -1.252035,-2.6605 -2.060547,-4.086 -0.808512,-1.4254 -1.679046,-2.8109 -2.445312,-3.8574 -0.383133,-0.5232 -0.738315,-0.9616 -1.0625,-1.2871 -0.162093,-0.1627 -0.315081,-0.297 -0.476563,-0.4043 -0.161482,-0.1073 -0.332425,-0.2051 -0.582031,-0.2051 z m 0,1 c -0.08095,0 -0.04606,-0.013 0.0293,0.037 0.07535,0.05 0.190538,0.1471 0.322265,0.2793 0.263455,0.2646 0.597642,0.6711 0.962891,1.17 0.730498,0.9976 1.589159,2.3625 2.382813,3.7617 0.793654,1.3992 1.524121,2.8374 2.007812,3.9804 0.241846,0.5716 0.422046,1.0721 0.515625,1.4375 0.09358,0.3655 0.01537,0.6118 0.08984,0.4805 0.05642,-0.099 -0.01079,0.01 -0.214844,0.084 -0.204057,0.075 -0.515754,0.152 -0.894531,0.2187 -0.757555,0.1336 -1.790277,0.2292 -2.923828,0.2833 l -0.476563,0.023 0,16.0683 c 0,0.1537 -0.0735,0.1758 -0.06055,0.1758 l -3.84375,0 c 0.01296,0 -0.06055,-0.022 -0.06055,-0.1758 l 0,-16.0859 -0.470704,-0.025 c -1.049256,-0.06 -1.994662,-0.1578 -2.683593,-0.2871 -0.344466,-0.065 -0.626384,-0.1394 -0.8085941,-0.209 -0.1822104,-0.07 -0.2375434,-0.1654 -0.1835938,-0.07 0.074477,0.1313 -0.00373,-0.115 0.089844,-0.4805 0.093578,-0.3654 0.2737801,-0.8659 0.5156251,-1.4375 0.48369,-1.143 1.214159,-2.5812 2.007812,-3.9804 0.793654,-1.3992 1.652315,-2.7641 2.382813,-3.7617 0.365249,-0.4989 0.699436,-0.9054 0.962891,-1.17 0.131727,-0.1322 0.246912,-0.2292 0.322265,-0.2793 0.07535,-0.05 0.110252,-0.037 0.0293,-0.037 z"
       id="rect5191"
       inkscape:connector-curvature="0" />
  </g>
</svg>
